<svg xmlns="http://www.w3.org/2000/svg" width="219" height="86" viewBox="0 0 219 86" fill="none">
<g clip-path="url(#clip0_111_225)">
<path fill-rule="evenodd" clip-rule="evenodd" d="M52.0994 7.20403V6.14553H66.3879V7.20403H65.7194C64.1825 7.20403 63.1766 7.32856 62.7018 7.58384C62.2269 7.83913 61.9083 8.30611 61.7459 8.99725C61.5834 9.68839 61.5022 11.3259 61.5022 13.9162V29.1897C61.5022 31.6367 61.5584 33.2431 61.6771 34.0028C61.7958 34.7624 62.102 35.3228 62.6018 35.6901C63.1016 36.0575 64.0575 36.2443 65.4695 36.2443H66.3941V37.3028H52.1057V36.2443H53.0303C54.3674 36.2443 55.292 36.0762 55.8106 35.7399C56.3229 35.4037 56.654 34.8807 56.7915 34.1646C56.9289 33.4486 56.9976 31.7924 56.9976 29.1897V13.9162C56.9976 11.438 56.9289 9.83782 56.7915 9.11555C56.654 8.39328 56.3479 7.89516 55.8668 7.6212C55.392 7.34723 54.3611 7.21025 52.7804 7.21025H52.1119L52.0994 7.20403ZM95.7083 28.1374L95.4771 37.3028H68.9245V36.2443H69.8491C71.1861 36.2443 72.1108 36.0762 72.6293 35.7399C73.1416 35.4037 73.4728 34.8807 73.6227 34.1646C73.7664 33.4548 73.8414 31.7924 73.8414 29.1897V13.9162C73.8414 11.438 73.7664 9.83782 73.6227 9.11555C73.479 8.39328 73.1666 7.89516 72.6981 7.6212C72.2295 7.34723 71.2049 7.21025 69.6179 7.21025H68.9245V6.15175H83.9314V7.21025H82.5506C81.0137 7.21025 80.0078 7.33478 79.533 7.59007C79.0582 7.84535 78.7396 8.31234 78.5771 9.00348C78.4147 9.69461 78.3335 11.3322 78.3335 13.9224V30.2357C78.3335 32.4897 78.3959 33.8969 78.5209 34.4635C78.6458 35.0301 78.977 35.4722 79.5205 35.7835C80.0641 36.0948 81.2386 36.2567 83.038 36.2567H85.4121C87.3301 36.2567 88.7608 36.0886 89.6855 35.7524C90.6164 35.4162 91.4973 34.6814 92.3345 33.5482C93.1717 32.415 93.9339 30.6156 94.6274 28.1499H95.7083V28.1374ZM124.223 28.1374L123.992 37.3028H97.4389V36.2443H98.3635C99.7005 36.2443 100.625 36.0762 101.144 35.7399C101.656 35.4037 101.987 34.8807 102.137 34.1646C102.281 33.4548 102.356 31.7924 102.356 29.1897V13.9162C102.356 11.438 102.281 9.83782 102.137 9.11555C101.993 8.39328 101.681 7.89516 101.212 7.6212C100.744 7.34723 99.7193 7.21025 98.1324 7.21025H97.4389V6.15175H112.446V7.21025H111.065C109.528 7.21025 108.522 7.33478 108.047 7.59007C107.573 7.84535 107.254 8.31234 107.092 9.00348C106.929 9.69461 106.848 11.3322 106.848 13.9224V30.2357C106.848 32.4897 106.91 33.8969 107.035 34.4635C107.16 35.0301 107.491 35.4722 108.035 35.7835C108.578 36.0948 109.753 36.2567 111.552 36.2567H113.927C115.851 36.2567 117.275 36.0886 118.2 35.7524C119.131 35.4162 120.012 34.6814 120.849 33.5482C121.686 32.415 122.448 30.6156 123.142 28.1499H124.223V28.1374ZM125.835 7.20403V6.14553H140.123V7.20403H139.455C137.918 7.20403 136.912 7.32856 136.437 7.58384C135.962 7.83913 135.643 8.30611 135.481 8.99725C135.319 9.68839 135.237 11.3259 135.237 13.9162V29.1897C135.237 31.6367 135.294 33.2431 135.412 34.0028C135.531 34.7624 135.837 35.3228 136.337 35.6901C136.837 36.0575 137.793 36.2443 139.205 36.2443H140.129V37.3028H125.841V36.2443H126.765C128.102 36.2443 129.027 36.0762 129.546 35.7399C130.058 35.4037 130.389 34.8807 130.527 34.1646C130.664 33.4486 130.733 31.7924 130.733 29.1897V13.9162C130.733 11.438 130.664 9.83782 130.527 9.11555C130.389 8.39328 130.083 7.89516 129.602 7.6212C129.121 7.34723 128.096 7.21025 126.516 7.21025H125.847L125.835 7.20403ZM162.646 25.8149H150.775L149.969 27.7887C148.77 30.6529 148.17 32.5209 148.17 33.3926C148.17 34.3265 148.489 35.0363 149.126 35.5158C149.763 35.9952 150.582 36.2381 151.581 36.2381V37.2966H142.291V36.2381C143.672 36.0264 144.703 35.5345 145.377 34.7811C146.052 34.0277 146.871 32.4275 147.82 29.9929C147.895 29.7625 148.264 28.8784 148.926 27.328L158.01 5.70967H158.91L169.35 30.4537L170.78 33.7163C171.105 34.4511 171.536 35.0301 172.08 35.4535C172.623 35.8769 173.442 36.1384 174.535 36.2443V37.3028H162.252V36.2443C163.758 36.2443 164.776 36.1322 165.307 35.9143C165.839 35.6964 166.101 35.2543 166.101 34.5943C166.101 34.258 165.745 33.2556 165.039 31.5869L162.64 25.8212L162.646 25.8149ZM162.252 24.7813L156.723 11.5003L151.213 24.7813H162.252ZM198.027 31.9231L209.416 6.14553H219.006V7.20403H217.857C216.32 7.20403 215.314 7.32856 214.839 7.58384C214.364 7.83913 214.046 8.30611 213.883 8.99725C213.721 9.68839 213.64 11.3259 213.64 13.9162V29.1897C213.64 31.6367 213.702 33.2431 213.827 34.0028C213.952 34.7624 214.264 35.3228 214.758 35.6901C215.251 36.0575 216.214 36.2443 217.626 36.2443H219.006V37.3028H204.068V36.2443H205.174C206.498 36.2443 207.411 36.0762 207.929 35.7399C208.441 35.4037 208.773 34.8807 208.923 34.1646C209.066 33.4548 209.141 31.7924 209.141 29.1897V9.36461L196.765 37.2966H195.684L183.213 9.36461V27.6019C183.213 30.0988 183.288 31.7986 183.444 32.7014C183.601 33.6043 184.075 34.395 184.875 35.0799C185.675 35.7648 186.799 36.1509 188.243 36.2381V37.2966H177.066V36.2381C178.403 36.1633 179.49 35.796 180.327 35.1484C181.164 34.5009 181.676 33.6977 181.858 32.745C182.039 31.7924 182.132 30.0365 182.132 27.4587V13.9037C182.132 11.4256 182.057 9.82537 181.914 9.1031C181.77 8.38083 181.464 7.88271 180.989 7.60875C180.514 7.33478 179.496 7.1978 177.909 7.1978H177.053V6.1393H186.575L198.033 31.9169L198.027 31.9231ZM90.8101 78.9143L104.43 48.0808H115.901V49.3448H114.52C112.683 49.3448 111.477 49.4942 110.909 49.7993C110.34 50.1044 109.959 50.6648 109.766 51.4867C109.572 52.3086 109.478 54.2699 109.478 57.3707V75.6454C109.478 78.578 109.553 80.4958 109.697 81.4049C109.847 82.3139 110.215 82.9864 110.815 83.4222C111.415 83.8581 112.558 84.0822 114.251 84.0822H115.907V85.3462H98.0386V84.0822H99.3632C100.944 84.0822 102.043 83.883 102.656 83.4783C103.274 83.0736 103.668 82.4509 103.843 81.5979C104.018 80.7449 104.105 78.7648 104.105 75.6454V51.9288L89.2981 85.3462H88.0049L73.0854 51.9288V73.7463C73.0854 76.735 73.1791 78.7648 73.3603 79.8483C73.5415 80.9317 74.1163 81.8781 75.0722 82.6937C76.0281 83.5094 77.3713 83.9702 79.0957 84.0822V85.3462H65.7194V84.0822C67.3188 83.9888 68.6183 83.5592 69.6242 82.7747C70.6238 81.9964 71.2361 81.0375 71.4548 79.9043C71.6734 78.7711 71.7859 76.6603 71.7859 73.5844V57.3707C71.7859 54.4007 71.6984 52.4891 71.5235 51.6299C71.3486 50.7706 70.9799 50.1729 70.4176 49.8429C69.8554 49.5129 68.6308 49.3448 66.7378 49.3448H65.7194V48.0808H77.1089L90.8101 78.9143ZM138.499 73.8646H126.628L125.822 75.8384C124.623 78.7026 124.023 80.5705 124.023 81.4422C124.023 82.3762 124.341 83.086 124.979 83.5655C125.616 84.0449 126.434 84.2877 127.434 84.2877V85.3462H118.144V84.2877C119.524 84.076 120.555 83.5841 121.23 82.8307C121.905 82.0773 122.723 80.4771 123.673 78.0426C123.748 77.8122 124.116 76.928 124.779 75.3776L133.863 53.7593H134.763L145.202 78.5033L146.633 81.766C146.958 82.5007 147.389 83.0798 147.933 83.5032C148.476 83.9266 149.295 84.1881 150.388 84.294V85.3524H138.105V84.294C139.611 84.294 140.629 84.1819 141.16 83.964C141.691 83.746 141.954 83.3039 141.954 82.6439C141.954 82.3077 141.597 81.3052 140.891 79.6366L138.492 73.8708L138.499 73.8646ZM138.105 72.831L132.576 59.55L127.065 72.831H138.105ZM186.3 85.3524H177.884C176.391 84.3126 174.11 81.5854 171.037 77.1771C170.056 75.7699 169.031 74.4188 167.969 73.1237C166.907 71.8286 166.182 71.044 165.782 70.7576C165.382 70.4712 164.758 70.3342 163.914 70.3342H162.671V77.2518C162.671 79.6988 162.727 81.3052 162.846 82.0649C162.965 82.8245 163.271 83.3849 163.771 83.7522C164.27 84.1196 165.226 84.3064 166.638 84.3064H168.138V85.3649H153.181V84.3064H154.193C155.53 84.3064 156.454 84.1383 156.973 83.8021C157.492 83.4658 157.816 82.9428 157.954 82.2268C158.091 81.5107 158.16 79.8545 158.16 77.2518V61.9783C158.16 59.5001 158.091 57.8999 157.954 57.1777C157.816 56.4554 157.51 55.9573 157.029 55.6833C156.548 55.4094 155.524 55.2724 153.943 55.2724H153.412V54.2139L157.885 53.9835C160.865 53.8465 163.233 53.778 164.983 53.778C167.963 53.778 170.387 54.052 172.255 54.6061C174.123 55.1603 175.635 56.0631 176.784 57.3147C177.934 58.5662 178.515 60.073 178.515 61.8164C178.515 63.8524 177.765 65.5896 176.253 67.0342C174.748 68.4725 172.536 69.3691 169.612 69.724C170.918 70.3529 173.023 72.6193 175.928 76.5233C178.296 79.6926 180.152 81.766 181.508 82.7498C182.863 83.7336 184.457 84.2504 186.3 84.3126V85.3711V85.3524ZM162.677 69.2695C163.827 69.2383 165.02 69.1948 166.251 69.1325C167.482 69.0702 168.55 68.9021 169.456 68.6282C170.362 68.3542 171.099 67.9495 171.655 67.4202C172.211 66.891 172.655 66.1998 172.98 65.3406C173.304 64.4813 173.461 63.4228 173.461 62.1713C173.461 59.9796 172.911 58.2299 171.811 56.9099C170.712 55.5899 168.319 54.9361 164.633 54.9361C164.064 54.9361 163.408 54.9673 162.671 55.0295V69.2695H162.677ZM199.676 71.7289L205.83 61.4117C206.842 59.7243 207.354 58.535 207.354 57.8252C207.354 57.1839 207.086 56.5924 206.548 56.0569C206.011 55.5214 205.049 55.2537 203.668 55.2537V54.1952H213.877V55.2537C212.465 55.4529 211.322 55.976 210.453 56.829C209.585 57.682 208.473 59.22 207.123 61.4553L200.113 73.105V77.2394C200.113 79.8918 200.195 81.5792 200.357 82.3077C200.519 83.0362 200.863 83.5468 201.394 83.8456C201.925 84.1445 202.962 84.294 204.518 84.294V85.3524H191.192V84.294H191.698C193.035 84.294 193.959 84.1258 194.478 83.7896C194.996 83.4534 195.321 82.9304 195.459 82.2143C195.596 81.4983 195.665 79.842 195.665 77.2394V73.4039L187.874 60.652C186.293 58.0805 185.238 56.5426 184.719 56.0445C184.2 55.5463 183.257 55.2848 181.908 55.2537V54.1952H194.584V55.2537C192.216 55.2537 191.035 55.7892 191.035 56.8601C191.035 57.2897 191.429 58.149 192.21 59.4317L199.676 71.7227V71.7289ZM38.0671 37.2903H36.8551L25.728 7.27874L16.0003 37.2966H14.7071L5.89783 8.94121C5.10438 6.36345 4.53584 4.65117 4.18597 3.79815C3.8361 2.94512 3.38002 2.32247 2.81148 1.91775C2.24919 1.51303 1.30579 1.28888 -0.00622559 1.23284V0H13.7074V1.23284C12.0518 1.33869 10.9959 1.5753 10.5274 1.94266C10.0588 2.31002 9.82763 2.82682 9.82763 3.48682C9.82763 4.07834 10.2025 5.59137 10.9585 8.02592L17.481 29.2395L27.0212 0H28.5269L39.248 29.2395L44.8271 9.90631C45.5644 7.2912 45.933 5.58514 45.933 4.7757C45.933 2.41587 44.6647 1.23284 42.1344 1.23284V0H52.0994V1.23284C50.625 1.33869 49.5316 1.88039 48.8132 2.85795C48.0947 3.83551 47.1888 6.17666 46.0892 9.88141L38.0609 37.2966L38.0671 37.2903Z" fill="white"/>
<path fill-rule="evenodd" clip-rule="evenodd" d="M18.8117 62.6509C17.9995 60.9075 17.5934 59.2761 17.5934 57.7631C17.5934 56.057 18.0995 54.4631 19.1116 52.9998C20.1238 51.5366 21.4108 50.3536 22.9727 49.4508C24.5346 48.5541 26.1528 48.0996 27.8334 48.0996C29.7139 48.0996 31.2759 48.6164 32.5317 49.65C33.7874 50.6836 34.4122 51.9227 34.4122 53.361C34.4122 54.4382 34.1123 55.4406 33.5063 56.3559C32.9003 57.2712 32.263 57.732 31.5945 57.732C31.2696 57.732 31.1072 57.5638 31.1072 57.2214C31.1072 57.0969 31.1947 56.8167 31.3758 56.387C31.6632 55.6834 31.8069 54.9736 31.8069 54.2576C31.8069 53.1804 31.3633 52.3025 30.4824 51.6238C29.5952 50.9513 28.5331 50.6089 27.2836 50.6089C25.2781 50.6089 23.4038 51.4308 21.6607 53.0808C19.9176 54.7246 19.0492 56.6112 19.0492 58.7344C19.0492 59.6871 19.1741 60.4965 19.4303 61.1503C19.6802 61.8103 19.9113 62.2337 20.1238 62.4329C20.3299 62.6322 20.6236 62.7318 21.0047 62.7318C23.4975 62.7318 24.7408 63.4541 24.7408 64.8924C24.7408 65.2535 24.6096 65.596 24.3472 65.9198C24.0848 66.2435 23.7037 66.4054 23.1976 66.4054C22.6353 66.4054 21.9231 66.0381 21.0609 65.2971C20.1425 64.5064 19.2366 64.1079 18.3494 64.1079C17.2123 64.1079 16.1315 64.6682 15.1131 65.7952C14.0947 66.9222 13.5824 68.2547 13.5824 69.8051C13.5824 72.8125 15.0819 75.6517 18.0808 78.3229C21.0797 80.994 24.8033 82.3327 29.2641 82.3327C33.4875 82.3327 37.105 81.2867 40.1101 79.1884C43.1152 77.0901 44.6209 74.587 44.6209 71.673C44.6209 69.7304 43.8774 68.043 42.403 66.6109C40.9223 65.1788 38.9168 64.4628 36.3927 64.4628C34.3497 64.4628 32.5317 65.0232 30.9322 66.1377C29.3328 67.2522 28.5331 68.647 28.5331 70.3219C28.5331 71.3306 28.8205 72.1587 29.4016 72.8062C29.9764 73.4538 30.5761 73.7776 31.1884 73.7776C31.8944 73.7776 32.2443 73.3978 32.2443 72.6444L32.2193 72.3206C32.2005 72.084 32.1943 71.9221 32.1943 71.8349C32.1943 71.0442 32.4129 70.3904 32.844 69.8798C33.2751 69.3692 33.8249 69.1077 34.4934 69.1077C35.1244 69.1077 35.6742 69.3256 36.1428 69.7677C36.6114 70.2098 36.8488 70.8262 36.8488 71.617C36.8488 72.7502 36.4552 73.6966 35.668 74.45C34.8808 75.2034 33.8749 75.5832 32.6504 75.5832C31.1884 75.5832 29.9264 75.0665 28.8705 74.0329C27.8147 72.9993 27.2836 71.7228 27.2836 70.2098C27.2836 67.9994 28.2145 65.982 30.0763 64.1639C31.9381 62.3458 35.3119 61.4367 40.2038 61.4367C44.5897 61.4367 47.776 60.8327 49.7628 59.6248C51.7495 58.4356 52.7429 56.6299 52.7429 54.2016C52.7429 52.7632 52.2993 51.5802 51.4184 50.6525C50.5312 49.7247 49.4129 49.264 48.0571 49.264C47.3886 49.264 46.8888 49.3574 46.5515 49.5504C46.2141 49.7372 46.0516 50.0298 46.0516 50.4283C46.0516 50.6836 46.2141 51.0385 46.539 51.5055C46.9513 52.097 47.1637 52.6761 47.1637 53.2302C47.1637 53.8965 46.9076 54.4817 46.389 54.9861C45.8767 55.4904 45.2394 55.7395 44.4772 55.7395C43.5713 55.7395 42.8903 55.4531 42.4217 54.874C41.9532 54.3012 41.7157 53.6225 41.7157 52.8504C41.7157 51.63 42.3155 50.5279 43.5151 49.5566C44.7146 48.5853 46.2453 48.0996 48.1071 48.0996C49.9689 48.0996 51.6121 48.797 52.8866 50.1917C54.1611 51.5864 54.7984 53.2676 54.7984 55.2289C54.7984 57.0844 54.2548 58.7718 53.1615 60.3035C52.0682 61.8352 50.6874 62.9124 49.0193 63.5413C47.3512 64.1701 45.0083 64.5375 41.9906 64.6496C44.8771 66.6856 46.3265 69.2945 46.3265 72.4762C46.3265 74.8672 45.4394 77.1835 43.6713 79.4125C41.9032 81.6416 39.7602 83.2978 37.2362 84.3813C34.7183 85.4584 31.6445 86.0001 28.0146 86.0001C25.0719 86.0001 22.6853 85.6826 20.8672 85.0413C19.0429 84.3999 17.3061 83.4722 15.6504 82.2456C14.001 81.019 12.7015 79.5246 11.7519 77.7501C10.8022 75.9755 10.3274 74.0764 10.3274 72.0404C10.3274 69.556 11.0396 67.4702 12.4641 65.7766C13.8886 64.083 16.0003 63.0431 18.7992 62.6446L18.8117 62.6509Z" fill="#B38D4C"/>
</g>
<defs>
<clipPath id="clip0_111_225">
<rect width="219" height="86" fill="white"/>
</clipPath>
</defs>
</svg>