<svg style="fill-rule:nonzero;clip-rule:evenodd;stroke-linecap:round;stroke-linejoin:round" xmlns="http://www.w3.org/2000/svg" xml:space="preserve" xmlns:vectornator="http://vectornator.io" viewBox="0 0 612 618.432"><style>@media (prefers-color-scheme: light) {#path {fill: #115740;}</style><g id="path" vectornator:layerName="Untitled" fill-opacity="1" fill="#fff"><path d="M271.928 129.684a4.053 4.053 0 1 1 8.105.001 4.053 4.053 0 0 1-8.105-.001zM291.38 129.684a4.053 4.053 0 1 1 8.105.001 4.053 4.053 0 0 1-8.105-.001zM310.834 129.684a4.052 4.052 0 1 1 8.105 0 4.052 4.052 0 1 1-8.105 0zM330.286 129.684a4.053 4.053 0 1 1 8.105.001 4.053 4.053 0 0 1-8.105-.001zM292.292 47.821h11.247V36.574c-5.866.732-10.516 5.38-11.247 11.247zM305.16 62.41c6.613 0 12.07-4.95 12.868-11.347h-25.736c.797 6.398 6.254 11.348 12.868 11.348zM306.782 36.574V47.82h11.246c-.732-5.866-5.381-10.515-11.246-11.247z"/><path d="M388.725 75.365a4.05 4.05 0 0 0-3.736 2.053c.038-1.222.02-2.386-.047-3.483a38.231 38.231 0 0 0-.491-4.199 4.047 4.047 0 0 0 4.089 1.438 4.052 4.052 0 1 0-1.824-7.897 4.048 4.048 0 0 0-3.029 3.022 35.493 35.493 0 0 0-2.81-7.15 4.05 4.05 0 0 0 5.744-5.44 4.05 4.05 0 0 0-7.503 2.469c-1.843-2.772-3.711-4.665-4.936-5.626a4.053 4.053 0 1 0-2.899-6.1 4.047 4.047 0 0 0 .065 4.272A25.805 25.805 0 0 0 364.29 46a4.052 4.052 0 1 0-5.141-4.454 4.047 4.047 0 0 0 1.75 3.92c-2.556-.242-5.145-.136-7.74.227a4.052 4.052 0 1 0-3.157.567c-2.572.561-5.138 1.343-7.67 2.285a4.046 4.046 0 0 0 .797-4.28 4.053 4.053 0 0 0-7.514 3.036 4.047 4.047 0 0 0 3.505 2.523c-2.483 1.052-4.92 2.224-7.286 3.439a4.05 4.05 0 0 0-5.161-5.98 4.051 4.051 0 0 0 2.04 7.624c-2.26 1.22-4.444 2.45-6.516 3.62-6.859 3.87-13.337 7.528-17.034 7.528-3.697 0-10.174-3.656-17.033-7.528-2.072-1.17-4.254-2.4-6.513-3.618a4.049 4.049 0 0 0 1.994-7.627 4.053 4.053 0 0 0-5.481 1.676 4.048 4.048 0 0 0 .294 4.27c-2.348-1.203-4.763-2.364-7.225-3.406a4.046 4.046 0 0 0 3.469-2.52 4.052 4.052 0 1 0-6.74 1.22c-2.519-.934-5.072-1.71-7.631-2.266a4.05 4.05 0 0 0-.161-7.918 4.052 4.052 0 0 0-3.021 7.35c-2.595-.36-5.183-.464-7.737-.217a4.048 4.048 0 0 0 1.756-3.925 4.053 4.053 0 0 0-8.027 1.128 4.054 4.054 0 0 0 2.906 3.333 25.82 25.82 0 0 0-7.103 2.756 4.047 4.047 0 0 0 .089-4.31 4.053 4.053 0 1 0-6.947 4.174 4.052 4.052 0 0 0 4.102 1.915c-1.234.965-3.131 2.886-4.996 5.707a4.05 4.05 0 0 0-7.498-2.54 4.053 4.053 0 0 0 5.808 5.397 35.468 35.468 0 0 0-2.855 7.275 4.048 4.048 0 0 0-3.048-3.104 4.053 4.053 0 0 0-1.824 7.897 4.05 4.05 0 0 0 4.141-1.504 38.333 38.333 0 0 0-.503 4.263 38.327 38.327 0 0 0-.043 3.565 4.05 4.05 0 0 0-7.615 2.126 4.051 4.051 0 0 0 4.259 3.834 4.056 4.056 0 0 0 3.6-2.667c1.213 10.483 6.904 24.566 23.876 40.6-1.229 13.087-4.436 17.347-4.436 20.045a4.052 4.052 0 0 0 4.053 4.052H361.25a4.052 4.052 0 0 0 4.052-4.052c0-2.698-3.206-6.959-4.437-20.045 16.933-15.997 22.636-30.05 23.868-40.526a4.05 4.05 0 0 0 7.828-1.242 4.054 4.054 0 0 0-3.836-4.258zm-81.361 60.804v-.005h-5.105v.005h-46.582l.325-2.47c.172.023.348.038.527.038a4.05 4.05 0 0 0 .527-8.067l.325-2.47h95.56l.324 2.47a4.05 4.05 0 0 0 .527 8.067 4 4 0 0 0 .528-.039l.325 2.47h-47.281v.001zm34.026-25.778a4.045 4.045 0 0 0 .952-7.12c1.195-1.861 2.755-2.967 4.161-2.967 2.068 0 3.529 2.277 4.01 6.247a.405.405 0 0 0 .767.129c2.827-5.792 2.09-9.136.974-10.923-1.089-1.744-3.017-2.744-5.288-2.744a7.81 7.81 0 0 0-3.378.775c2.166-4.652 4.028-10.309-3.304-16.966a.405.405 0 0 0-.545 0c-7.331 6.656-5.468 12.313-3.304 16.966a7.8 7.8 0 0 0-3.378-.775c-2.272 0-4.199 1-5.288 2.744-1.115 1.786-1.852 5.131.976 10.923a.406.406 0 0 0 .767-.129c.48-3.971 1.941-6.247 4.009-6.247 1.406 0 2.967 1.106 4.161 2.968a4.046 4.046 0 0 0 .865 7.088c-4.064.766-3.815 4.736-11.503 4.736-10.133 0-17.33-14.038-17.33-14.038h-.041a7.744 7.744 0 0 0 1.688-1.68l8.982 3.156a16.953 16.953 0 0 0 1.837-7.701 16.95 16.95 0 0 0-1.837-7.7l-3.413 1.2c14.157-22.722 28.167-28.524 35.542-29.922 6.759-1.283 11.661.3 13.998 2.208 2.955 2.414 6.051 7.574 5.875 14.817-.206 8.517-4.915 21.929-25.877 37.852-1.795-1.308-3.285-2.484-5.078-2.897zm-41.499-15.56a5.274 5.274 0 0 1 5.268-5.268 5.274 5.274 0 0 1 5.269 5.269 5.274 5.274 0 0 1-5.269 5.268 5.274 5.274 0 0 1-5.268-5.268zm-9.915 7.701 8.984-3.153a7.737 7.737 0 0 0 1.686 1.677h-.041s-7.198 14.038-17.33 14.038c-7.688 0-7.44-3.968-11.504-4.735a4.05 4.05 0 0 0 2.588-3.775c0-1.371-.682-2.58-1.723-3.313 1.195-1.862 2.755-2.968 4.161-2.968 2.068 0 3.529 2.277 4.01 6.247a.405.405 0 0 0 .767.129c2.828-5.792 2.091-9.137.976-10.923-1.089-1.744-3.017-2.744-5.288-2.744-1.17 0-2.332.27-3.378.775 2.165-4.653 4.028-10.31-3.304-16.966a.405.405 0 0 0-.545 0c-7.331 6.656-5.469 12.314-3.305 16.966a7.798 7.798 0 0 0-3.377-.775c-2.271 0-4.199 1-5.288 2.744-1.116 1.786-1.852 5.131.975 10.923a.405.405 0 0 0 .767-.129c.481-3.97 1.942-6.247 4.01-6.247 1.406 0 2.966 1.105 4.161 2.967a4.047 4.047 0 0 0 .951 7.12c-1.792.413-3.282 1.589-5.078 2.896-20.962-15.924-25.672-29.335-25.878-37.852-.175-7.243 2.92-12.403 5.876-14.817 2.336-1.908 7.241-3.492 13.997-2.209 7.375 1.398 21.384 7.2 35.54 29.92l-3.411-1.199a16.963 16.963 0 0 0-1.837 7.7c0 2.772.663 5.391 1.838 7.703zm67.64 15.247c-2.749-.285-4.912-.952-6.702-1.781 21.223-16.612 26.068-31.078 26.294-40.446.185-7.64-2.679-14.631-7.662-18.7-4.125-3.37-10.846-4.573-17.98-3.22-8.561 1.623-25.116 8.458-40.949 35.776a7.857 7.857 0 0 0-.913-.778l3.155-8.982a16.94 16.94 0 0 0-7.7-1.837c-2.771 0-5.388.662-7.701 1.837l3.174 8.969c-.33.24-.644.501-.932.79-15.832-27.317-32.387-34.153-40.948-35.776-7.134-1.353-13.855-.148-17.979 3.22-4.982 4.069-7.846 11.06-7.661 18.701.226 9.368 5.071 23.834 26.294 40.446-1.79.829-3.953 1.496-6.703 1.78-15.547-14.717-23.31-29.744-22.471-43.55.646-10.657 6.388-18.057 9.067-19.97 13.849-9.892 31.918.308 46.437 8.505 8.073 4.556 14.449 8.156 19.423 8.156 4.975 0 11.352-3.6 19.425-8.156 14.519-8.197 32.589-18.397 46.436-8.506 2.68 1.914 8.421 9.314 9.068 19.971.838 13.807-6.925 28.834-22.472 43.551zM298.958 21.566a7.772 7.772 0 0 0 1.657 1.656l-3.156 8.983a16.959 16.959 0 0 0 7.701 1.837c2.772 0 5.389-.663 7.701-1.837l-3.156-8.983a7.731 7.731 0 0 0 1.657-1.657l8.983 3.156a16.963 16.963 0 0 0 1.836-7.7 16.96 16.96 0 0 0-1.836-7.701l-8.983 3.156a7.734 7.734 0 0 0-1.657-1.657l3.156-8.982A16.954 16.954 0 0 0 305.16 0a16.96 16.96 0 0 0-7.701 1.837l3.156 8.982a7.777 7.777 0 0 0-1.657 1.657l-8.982-3.156a16.95 16.95 0 0 0-1.837 7.701c0 2.772.662 5.388 1.837 7.7l8.982-3.155zm6.202-9.813a5.275 5.275 0 0 1 5.269 5.268 5.275 5.275 0 0 1-5.269 5.268 5.274 5.274 0 0 1-5.268-5.268 5.273 5.273 0 0 1 5.268-5.268z"/><path d="M616.402 185.611c0-38.906-35.245-49.037-53.089-49.037-36.162 0-69.099 29.171-98.035 70.831-21.932-8.776-46.152-21.896-72.382-40.592a129.627 129.627 0 0 1 11.076-6.899c13.097 8.542 29.337 16.998 45.488 16.998 22.279 0 30.296-11.469 30.296-17.339 0-6.101-3.162-19.187-33.565-19.187-8.943 0-23.496 1.653-42.066 10.019a485 485 0 0 1-12.669-8.308c-.647-.411-1.32-.652-2.099-.652a3.706 3.706 0 0 0-3.706 3.706c0 1.251.621 2.354 1.57 3.025 2.552 1.829 5.474 3.971 8.691 6.246a166.285 166.285 0 0 0-11.146 6.463 512.763 512.763 0 0 1-11.406-8.753 4.162 4.162 0 0 0-2.548-.887 4.053 4.053 0 0 0-4.053 4.053c0 1.2.488 2.32 1.346 3.028a477.348 477.348 0 0 0 9.293 7.467c-21.385 14.97-45.964 38.55-72.239 75.519-26.274-36.969-50.853-60.549-72.239-75.519a480.38 480.38 0 0 0 9.293-7.467c.859-.708 1.346-1.828 1.346-3.028a4.053 4.053 0 0 0-4.052-4.053c-.962 0-1.873.353-2.548.887a510.475 510.475 0 0 1-11.407 8.753 166.285 166.285 0 0 0-11.146-6.463c3.218-2.275 6.138-4.417 8.691-6.246a3.698 3.698 0 0 0 1.571-3.025 3.706 3.706 0 0 0-3.706-3.706c-.779 0-1.452.241-2.1.652-4.496 3.039-8.7 5.804-12.668 8.309-18.57-8.367-33.123-10.02-42.066-10.02-30.401 0-33.564 13.087-33.564 19.187 0 5.87 8.017 17.339 30.296 17.339 16.15 0 32.39-8.456 45.487-16.998a129.798 129.798 0 0 1 11.077 6.899c-26.23 18.696-50.45 31.816-72.383 40.592-28.935-41.66-61.872-70.831-98.034-70.831-17.844 0-53.09 10.131-53.09 49.037 0 37.03 55.078 64.255 135.338 37.974 1.14 1.958 2.275 3.94 3.405 5.944-22.11 5.162-39.453 21.456-39.453 44.024 0 44.266 30.8 53.9 58.763 53.9a4.863 4.863 0 1 0 0-9.726c-23.145 0-45.389-11.754-45.389-43.363 0-21.599 19.179-31.999 31.987-34.055 18.092 33.923 34.545 73.037 48.285 109.841-7.299 40.83-18.559 79.92-33.407 110.569-18.599-10.237-36.965-17.361-53.349-17.361-30.86 0-62.198 22.614-57.548 52.684 3.632 23.481 22.448 40.304 46.2 39.716 34.203-.848 59.925-22.4 79.338-53.307 25.874 15.86 51.678 34.974 72.821 47.602 17.744 10.597 36.179 21.045 54.523 30.277a406.645 406.645 0 0 1-18.356 7.879c-26.538-11.958-50.804-21.915-66.342-21.915-14.861 0-30.717 6.015-32.348 20.959-1.832 16.789 12.895 25.647 35.185 25.241 18.693-.339 39.945-5.891 62.221-14.555 5.813 2.692 11.789 5.462 17.844 8.232-27.69 12.232-54.482 22.534-73.58 22.534a4.863 4.863 0 0 0-4.864 4.864c0 2.686 2.191 4.863 4.876 4.863 20.824 0 53.266-12.81 85.093-27.043 31.827 14.233 64.269 27.043 85.092 27.043 2.686 0 4.877-2.177 4.877-4.863a4.864 4.864 0 0 0-4.864-4.864c-19.099 0-45.891-10.302-73.581-22.534 6.055-2.77 12.031-5.54 17.844-8.232 22.277 8.664 43.528 14.216 62.221 14.555 22.29.406 37.018-8.453 35.184-25.241-1.629-14.944-17.486-20.959-32.347-20.959-15.538 0-39.805 9.958-66.342 21.915a407.298 407.298 0 0 1-18.356-7.879c18.344-9.232 36.78-19.68 54.523-30.277 21.143-12.628 46.947-31.742 72.821-47.602 19.412 30.907 45.135 52.459 79.338 53.307 23.752.589 42.569-16.235 46.2-39.716 4.65-30.07-26.688-52.684-57.547-52.684-16.385 0-34.751 7.124-53.349 17.361-14.848-30.649-26.108-69.739-33.409-110.569 13.741-36.804 30.194-75.918 48.286-109.841 12.808 2.056 31.988 12.456 31.988 34.054 0 31.61-22.245 43.364-45.39 43.364a4.863 4.863 0 1 0 0 9.726c27.963 0 58.763-9.634 58.763-53.9 0-22.568-17.342-38.862-39.452-44.023a463.272 463.272 0 0 1 3.405-5.945c80.26 26.281 135.337-.945 135.337-37.974zm-170.211-37.528c15.6 0 24.478 4.491 24.478 11.279 0 6.34-12.671 8.862-21.235 8.862-10.928 0-22.197-4.188-36.775-12.638 10.963-4.85 22.168-7.503 33.532-7.503zm-285.305 20.142c-8.565 0-21.235-2.522-21.235-8.862 0-6.788 8.878-11.28 24.477-11.28 11.365 0 22.57 2.654 33.533 7.504-14.578 8.45-25.848 12.638-36.775 12.638zm402.427-20.304c23.505 0 37.689 16.211 37.689 37.69 0 22.448-42.357 50.526-114.65 29.141 24.184-39.294 50.592-66.831 76.961-66.831zM9.318 185.611c0-21.479 14.184-37.69 37.689-37.69 26.369 0 52.776 27.537 76.962 66.831-72.294 21.384-114.651-6.693-114.651-29.141zm215.309-13.478c25.36 19.872 48.903 50.426 69.464 85.411-10.967 16.744-22.184 35.853-33.547 57.664-35.974-55.677-73.092-81.087-101.58-86.354a451.523 451.523 0 0 0-8.409-13.292c23.19-9.846 48.087-24.022 74.072-43.429zm80.532 105.188c10.904 20.44 20.799 41.909 29.479 63.304-10.106 18.366-20.009 39.295-29.478 63.047-9.469-23.752-19.372-44.681-29.479-63.047 8.681-21.395 18.576-42.864 29.478-63.304zm-81.544 17.793c8.96 13.698 17.008 29.179 24.208 45.54-5.99 12.473-12.009 25.714-18.042 39.777a1644.37 1644.37 0 0 0-14.203-35.824c3.479-18.16 6.07-35.12 8.037-49.493zm-55.425-50.498c10.037 3.845 19.395 9.918 28.11 17.738a614.102 614.102 0 0 1-2.12 33.217c-8.142-17.464-16.816-34.674-25.99-50.955zM88.344 522.79c-28.368 2.836-49.948-42.271-13.374-63.222 19.266-11.035 45.575-3.147 73.178 11.44-16.26 29.678-36.334 49.435-59.804 51.782zm122.39 61.194c-9.087 0-17.617-5.911-17.832-14.995-.23-9.673 9.778-15.241 19.453-15.399 8.975-.147 28.691 8.361 52.41 19.257-19.374 6.842-37.966 11.137-54.031 11.137zm187.231-30.394c9.675.158 19.683 5.726 19.453 15.399-.215 9.084-8.745 14.995-17.832 14.995-16.065 0-34.657-4.295-54.031-11.137 23.718-10.896 43.434-19.404 52.41-19.257zm-75.372 19.458c-5.767 2.635-11.599 5.313-17.433 7.958-5.835-2.645-11.667-5.323-17.434-7.958a464.654 464.654 0 0 0 17.434-7.936 465.35 465.35 0 0 0 17.433 7.936zm212.757-113.48c36.574 20.951 14.995 66.058-13.375 63.221-23.469-2.346-43.543-22.103-59.803-51.78 27.602-14.588 53.913-22.476 73.178-11.441zm-98.753 13.349c-26.108 16.856-51.418 36.997-71.053 49.224-18.132 11.293-39.011 23.247-60.384 33.605-21.372-10.358-42.252-22.312-60.384-33.605-19.634-12.228-44.945-32.368-71.053-49.225 12.579-22.609 22.239-49.157 29.696-75.883 12.55 37.546 21.042 67.925 23.93 80.367.608 2.616 2.177 4.863 4.864 4.863 2.686 0 4.564-2.195 4.875-4.863 3.111-26.74 11.845-62.436 24.966-100.46 26.997 76.993 37.819 158.461 38.243 162.061.314 2.667 2.202 4.863 4.888 4.863s4.524-2.196 4.838-4.863c.423-3.6 11.246-85.068 38.242-162.06 13.122 38.024 21.856 73.719 24.967 100.459.311 2.668 2.189 4.863 4.875 4.863 2.687 0 4.256-2.247 4.864-4.863 2.888-12.442 11.381-42.821 23.93-80.367 7.456 26.726 17.116 53.274 29.696 75.884zm-49.892-177.803c1.967 14.373 4.558 31.333 8.036 49.493a1655.563 1655.563 0 0 0-14.203 35.824c-6.033-14.063-12.052-27.303-18.041-39.777 7.199-16.36 15.248-31.841 24.208-45.54zm27.315-32.76c8.714-7.82 18.072-13.893 28.109-17.738-9.173 16.28-17.847 33.491-25.989 50.955a612.072 612.072 0 0 1-2.12-33.217zm37.336-33.5c-28.488 5.268-65.606 30.678-101.58 86.356-11.363-21.812-22.58-40.921-33.547-57.666 20.561-34.985 44.103-65.539 69.464-85.411 25.984 19.407 50.882 33.583 74.072 43.43a447.325 447.325 0 0 0-8.409 13.291z"/></g></svg>