<svg xmlns="http://www.w3.org/2000/svg" viewBox="0 0 149 40" fill="none" role="img" aria-label="Varda Space Industries">
  <g clip-path="url(#clip0)">
    <path
      d="M100.973 19.7639H97.2811V15.0638H100.973C102.694 15.0638 103.681 15.9965 103.681 17.4138C103.681 18.8312 102.7 19.7639 100.973 19.7639ZM104.374 22.2462C106.347 21.3828 107.674 19.6661 107.674 17.4138C107.674 14.1149 105.213 11.9624 101.667 11.9624H93.3141V28.614H97.2832V22.8775H100.471L103.845 28.6243H108.214L104.374 22.2462Z"
      fill="currentColor"
    />
    <path
      d="M119.069 25.4882H116.47V15.0638H119.069C121.95 15.0638 123.913 17.1287 123.913 20.2709C123.913 23.413 121.95 25.4882 119.069 25.4882ZM127.989 20.2709C127.989 15.4793 124.447 11.9624 119.514 11.9624H112.501V28.614H119.255C119.311 28.614 119.528 28.614 119.583 28.614C119.561 28.614 119.606 28.614 119.583 28.614C124.476 28.555 127.989 25.0504 127.989 20.2709Z"
      fill="currentColor"
    />
    <path
      d="M78.1698 22.4296L80.8732 15.9232H80.9429L83.6464 22.4296H78.1698ZM83.2977 11.9624H78.7112L71.532 28.614H75.5032L76.8385 25.5065H84.9695L86.3068 28.614H90.4645L83.2977 11.9624Z"
      fill="currentColor"
    />
    <path
      d="M136.094 22.4296L138.801 15.9232H138.871L141.574 22.4296H136.094ZM141.222 11.9624H136.635L129.456 28.614H133.425L134.762 25.5065H142.903L144.239 28.614H148.397L141.222 11.9624Z"
      fill="currentColor"
    />
    <path
      d="M67.2513 11.9624L62.2053 24.1992H62.1335L57.0896 11.9624H52.657L59.8321 28.614H64.4124L71.5875 11.9624H67.2513Z"
      fill="currentColor"
    />
  </g>
  <path
    d="M5.28671 8.49131L12.7734 4.16584C12.7734 4.16584 21.9321 9.33797 24.1877 10.7548C26.4434 12.1717 28.5281 14.7001 28.0559 19.2982L30.9777 17.6126C31.0756 13.8247 29.2999 10.1443 25.7734 8.01326C22.3717 5.93213 12.5815 0.379852 12.5815 0.379852L1.91002 6.54072V18.8548L7.93586 22.3335V18.7915L5.28671 17.2651V8.49131ZM28.0483 30.3606L20.4521 34.7475L12.9654 30.4219C12.9654 30.4219 12.8656 19.905 12.9654 17.244C13.0652 14.5561 14.2113 11.5113 18.4308 9.6202L15.509 7.93454C12.1803 9.74115 9.88049 13.1182 9.79027 17.244C9.70389 21.2393 9.79027 32.4993 9.79027 32.4993L20.4521 38.6563L31.1159 32.4993V25.5475L28.0444 27.3175L28.0483 30.3606ZM28.3228 0.379852L22.3026 3.8529L25.3741 5.62494L28.0175 4.08905L35.6175 8.49131V17.1422C35.6175 17.1422 26.5606 22.4891 24.207 23.7331C21.8247 24.9945 18.6188 25.5206 14.8735 22.8116V26.1848C18.1025 28.1643 22.1683 28.4676 25.7927 26.4825C29.296 24.5625 39.0018 18.8528 39.0018 18.8528V6.54072L28.3228 0.379852ZM20.4521 11.4441C19.3051 11.4441 18.1839 11.7843 17.2302 12.4215C16.2764 13.0589 15.5331 13.9647 15.0943 15.0244C14.6553 16.0841 14.5406 17.2505 14.7641 18.3756C14.988 19.5006 15.5403 20.5341 16.3513 21.3452C17.1623 22.1564 18.1957 22.7087 19.3207 22.9326C20.4455 23.1563 21.6117 23.0414 22.6714 22.6023C23.731 22.1635 24.6368 21.4201 25.2741 20.4663C25.9113 19.5126 26.2514 18.3912 26.2514 17.244C26.2509 15.7059 25.6399 14.2309 24.5523 13.1434C23.4648 12.0557 21.9899 11.4447 20.4521 11.4441Z"
    fill="currentColor"
  />
  <defs>
    <clipPath id="clip0">
      <rect width="96.75" height="18" fill="currentColor" transform="translate(52 11)" />
    </clipPath>
  </defs>
</svg>
